<?xml version="1.0" encoding="UTF-8"?>
<svg version="1.1" xmlns="http://www.w3.org/2000/svg" width="24" height="24">
<path d="M0 0 C1.48831242 0.00667405 2.97660807 0.01863442 4.46484375 0.03515625 C5.22345703 0.03966797 5.98207031 0.04417969 6.76367188 0.04882812 C8.64326246 0.06064945 10.52281274 0.07858547 12.40234375 0.09765625 C12.40234375 1.08765625 12.40234375 2.07765625 12.40234375 3.09765625 C14.71234375 2.43765625 17.02234375 1.77765625 19.40234375 1.09765625 C19.40234375 5.71765625 19.40234375 10.33765625 19.40234375 15.09765625 C14.40234375 14.09765625 14.40234375 14.09765625 12.40234375 13.09765625 C12.40234375 14.08765625 12.40234375 15.07765625 12.40234375 16.09765625 C9.75644361 16.12450304 7.11081279 16.14441982 4.46484375 16.16015625 C3.71009766 16.16853516 2.95535156 16.17691406 2.17773438 16.18554688 C0.25240062 16.19418066 -1.67301206 16.14989958 -3.59765625 16.09765625 C-4.59765625 15.09765625 -4.59765625 15.09765625 -4.73046875 11.97265625 C-4.72789062 10.69390625 -4.7253125 9.41515625 -4.72265625 8.09765625 C-4.72523438 6.81890625 -4.7278125 5.54015625 -4.73046875 4.22265625 C-4.54139165 -0.22621668 -4.54695191 0.12342432 0 0 Z M-2.59765625 3.09765625 C-2.69589562 4.76194676 -2.72739256 6.43047556 -2.72265625 8.09765625 C-2.72523437 9.00515625 -2.7278125 9.91265625 -2.73046875 10.84765625 C-2.84939404 13.06732236 -2.84939404 13.06732236 -1.59765625 14.09765625 C0.42198574 14.17009678 2.44401499 14.18142813 4.46484375 14.16015625 C6.42421875 14.13953125 8.38359375 14.11890625 10.40234375 14.09765625 C10.40234375 10.13765625 10.40234375 6.17765625 10.40234375 2.09765625 C8.44296875 2.07703125 6.48359375 2.05640625 4.46484375 2.03515625 C2.81162109 2.01775391 2.81162109 2.01775391 1.125 2 C-1.51213259 1.78503054 -1.51213259 1.78503054 -2.59765625 3.09765625 Z M12.40234375 6.09765625 C12.40234375 7.41765625 12.40234375 8.73765625 12.40234375 10.09765625 C14.87734375 11.08765625 14.87734375 11.08765625 17.40234375 12.09765625 C17.40234375 9.45765625 17.40234375 6.81765625 17.40234375 4.09765625 C15.56187987 4.09765625 14.00604781 5.26993802 12.40234375 6.09765625 Z " fill="#FFFFFF" transform="translate(4.59765625,3.90234375)"/>
</svg>
